<svg id="svg" version="1.1" xmlns="http://www.w3.org/2000/svg" xmlns:xlink="http://www.w3.org/1999/xlink" width="400" height="400" viewBox="0, 0, 400,400"><g id="svgg"><path id="path0" d="M20.200 125.865 C 18.440 126.182,16.640 126.675,16.200 126.960 C 15.760 127.245,14.725 127.700,13.900 127.970 C 13.075 128.241,12.400 128.623,12.400 128.821 C 12.400 129.018,11.905 129.438,11.300 129.754 C 7.489 131.743,2.023 139.218,1.395 143.300 C 1.250 144.240,0.947 144.800,0.582 144.800 C 0.074 144.800,0.000 156.663,0.000 237.600 C 0.000 317.776,0.078 330.400,0.572 330.400 C 0.942 330.400,1.303 331.167,1.595 332.576 C 1.843 333.772,2.396 335.196,2.823 335.739 C 3.250 336.282,3.600 336.868,3.600 337.042 C 3.600 339.818,13.438 347.809,17.880 348.641 C 18.716 348.797,19.979 349.167,20.687 349.463 C 22.648 350.281,76.826 350.249,79.286 349.428 C 80.229 349.113,81.720 348.727,82.600 348.570 C 83.480 348.413,84.629 347.950,85.154 347.542 C 85.679 347.134,86.309 346.797,86.554 346.793 C 87.813 346.772,93.326 342.065,94.899 339.667 C 95.428 338.860,96.343 337.470,96.931 336.578 C 97.519 335.687,98.000 334.651,98.000 334.277 C 98.000 333.903,98.360 332.925,98.800 332.104 C 99.839 330.167,100.091 144.891,99.057 143.389 C 98.758 142.955,98.289 141.908,98.013 141.062 C 96.751 137.183,90.543 129.661,88.562 129.611 C 88.321 129.605,87.813 129.256,87.433 128.836 C 87.052 128.416,86.259 127.952,85.671 127.805 C 85.082 127.658,84.330 127.310,84.000 127.031 C 81.783 125.161,29.406 124.203,20.200 125.865 " stroke="none" fill="#fcd404" fill-rule="evenodd"></path><path id="path1" d="M319.600 176.177 C 317.340 176.611,315.310 177.358,313.760 178.325 C 309.538 180.960,305.187 185.100,304.227 187.396 C 303.905 188.168,303.473 188.800,303.268 188.800 C 303.063 188.800,302.687 189.627,302.432 190.637 C 302.178 191.648,301.662 192.945,301.285 193.520 C 300.645 194.496,300.600 199.049,300.600 262.582 L 300.600 330.600 301.499 332.000 C 301.993 332.770,302.398 333.824,302.399 334.342 C 302.399 334.860,302.850 335.819,303.400 336.473 C 303.950 337.127,304.400 337.912,304.400 338.219 C 304.400 338.866,310.048 344.800,310.663 344.800 C 310.890 344.800,311.387 345.144,311.767 345.564 C 312.148 345.984,312.941 346.448,313.529 346.595 C 314.118 346.742,314.907 347.139,315.282 347.477 C 315.894 348.029,316.878 348.314,322.600 349.604 C 326.387 350.458,375.410 350.071,379.358 349.156 C 389.014 346.918,397.416 339.204,398.609 331.479 C 398.738 330.642,399.104 329.858,399.422 329.736 C 400.311 329.395,400.293 196.107,399.404 195.444 C 399.077 195.200,398.637 194.083,398.427 192.963 C 397.461 187.816,389.765 178.927,385.312 177.815 C 384.700 177.663,383.928 177.293,383.596 176.993 C 382.012 175.567,326.458 174.858,319.600 176.177 " stroke="none" fill="#ac0c0c" fill-rule="evenodd"></path><path id="path2" d="M171.800 51.006 C 170.920 51.321,169.390 51.689,168.400 51.825 C 167.410 51.961,166.123 52.408,165.540 52.818 C 164.957 53.229,164.012 53.682,163.440 53.826 C 162.868 53.969,162.400 54.243,162.400 54.433 C 162.400 54.624,161.905 55.045,161.300 55.369 C 160.695 55.692,159.390 56.787,158.400 57.800 C 157.410 58.814,156.195 60.026,155.700 60.494 C 155.205 60.962,154.800 61.587,154.800 61.885 C 154.800 62.182,154.530 62.529,154.200 62.655 C 153.870 62.782,153.600 63.200,153.600 63.583 C 153.600 63.967,153.105 65.163,152.500 66.240 L 151.400 68.200 151.400 200.000 L 151.400 331.800 152.257 333.200 C 152.728 333.970,153.237 335.185,153.389 335.900 C 153.540 336.615,153.835 337.200,154.044 337.200 C 154.254 337.200,154.536 337.515,154.671 337.900 C 155.084 339.080,160.672 344.800,161.411 344.800 C 161.637 344.800,162.130 345.160,162.507 345.600 C 162.884 346.040,163.440 346.400,163.742 346.400 C 164.045 346.400,164.739 346.752,165.286 347.182 C 165.832 347.611,167.377 348.140,168.718 348.356 C 170.059 348.572,171.514 348.940,171.952 349.174 C 173.061 349.768,226.939 349.768,228.048 349.174 C 228.486 348.940,229.941 348.572,231.282 348.356 C 232.623 348.140,234.168 347.611,234.714 347.182 C 235.261 346.752,235.970 346.400,236.291 346.400 C 237.525 346.400,245.200 339.306,245.200 338.164 C 245.200 337.840,245.468 337.472,245.796 337.346 C 246.124 337.220,246.605 336.371,246.865 335.459 C 247.125 334.546,247.575 333.518,247.865 333.173 C 249.109 331.692,249.186 323.956,249.186 200.000 C 249.186 76.044,249.109 68.308,247.865 66.827 C 247.575 66.482,247.120 65.435,246.853 64.500 C 246.586 63.565,246.189 62.800,245.971 62.800 C 245.753 62.800,245.464 62.485,245.329 62.100 C 245.046 61.291,244.495 60.653,241.373 57.511 C 240.121 56.252,238.761 55.114,238.349 54.984 C 237.937 54.853,237.600 54.598,237.600 54.416 C 237.600 54.235,237.119 53.966,236.532 53.819 C 235.944 53.671,235.046 53.222,234.536 52.821 C 234.026 52.420,232.752 51.968,231.705 51.817 C 230.657 51.665,229.029 51.285,228.086 50.971 C 225.547 50.125,174.176 50.158,171.800 51.006 " stroke="none" fill="#4b83c3" fill-rule="evenodd"></path><path id="path3" d="M0.000 72.400 C 0.000 135.487,0.075 144.800,0.582 144.800 C 0.947 144.800,1.250 144.240,1.395 143.300 C 2.023 139.218,7.489 131.743,11.300 129.754 C 11.905 129.438,12.400 129.018,12.400 128.821 C 12.400 128.623,13.075 128.241,13.900 127.970 C 14.725 127.700,15.760 127.248,16.200 126.966 C 20.399 124.272,80.799 124.331,84.000 127.031 C 84.330 127.310,85.082 127.658,85.671 127.805 C 86.259 127.952,87.052 128.416,87.433 128.836 C 87.813 129.256,88.321 129.605,88.562 129.611 C 90.543 129.661,96.751 137.183,98.013 141.062 C 98.289 141.908,98.758 142.955,99.057 143.389 C 100.091 144.891,99.839 330.167,98.800 332.104 C 98.360 332.925,98.000 333.903,98.000 334.277 C 98.000 334.651,97.519 335.687,96.931 336.578 C 96.343 337.470,95.428 338.860,94.899 339.667 C 93.326 342.065,87.813 346.772,86.554 346.793 C 86.309 346.797,85.679 347.134,85.154 347.542 C 84.629 347.950,83.480 348.413,82.600 348.570 C 81.720 348.727,80.229 349.113,79.286 349.428 C 76.826 350.249,22.648 350.281,20.687 349.463 C 19.979 349.167,18.716 348.797,17.880 348.641 C 13.438 347.809,3.600 339.818,3.600 337.042 C 3.600 336.868,3.250 336.282,2.823 335.739 C 2.396 335.196,1.843 333.772,1.595 332.576 C 1.303 331.167,0.942 330.400,0.572 330.400 C 0.081 330.400,0.000 335.301,0.000 365.200 L 0.000 400.000 200.000 400.000 L 400.000 400.000 400.000 366.200 C 400.000 332.094,399.860 328.849,398.633 334.472 C 398.504 335.062,398.166 335.782,397.883 336.072 C 397.599 336.362,397.122 337.198,396.823 337.929 C 395.949 340.064,389.798 346.024,387.459 347.001 C 386.732 347.305,385.904 347.834,385.619 348.177 C 385.335 348.520,384.662 348.800,384.125 348.800 C 383.588 348.800,382.215 349.205,381.074 349.700 L 379.000 350.600 350.000 350.600 L 321.000 350.600 318.926 349.700 C 317.785 349.205,316.493 348.800,316.054 348.800 C 315.616 348.800,315.001 348.543,314.687 348.230 C 314.373 347.916,313.460 347.385,312.658 347.050 C 311.856 346.715,311.200 346.264,311.200 346.047 C 311.200 345.831,310.855 345.544,310.434 345.411 C 309.265 345.040,304.485 340.134,303.597 338.395 C 303.165 337.547,302.643 336.750,302.436 336.623 C 302.230 336.495,301.934 335.811,301.778 335.101 C 301.623 334.392,301.244 333.428,300.936 332.959 C 299.728 331.114,299.606 324.665,299.606 262.400 C 299.606 200.002,299.731 193.422,300.944 192.044 C 301.256 191.690,301.633 190.827,301.781 190.128 C 301.930 189.428,302.320 188.632,302.649 188.359 C 302.977 188.087,303.481 187.301,303.769 186.613 C 304.391 185.124,309.297 179.993,311.000 179.050 C 316.241 176.148,317.373 175.599,318.134 175.596 C 318.610 175.593,319.884 175.323,320.964 174.996 C 323.325 174.279,376.334 174.091,378.179 174.792 C 378.747 175.008,380.312 175.362,381.659 175.579 C 383.005 175.795,384.398 176.228,384.753 176.539 C 385.109 176.851,385.847 177.242,386.394 177.409 C 388.477 178.047,393.534 182.274,395.038 184.635 C 395.447 185.276,396.010 185.944,396.290 186.120 C 396.571 186.296,396.800 186.677,396.800 186.966 C 396.800 187.255,397.143 187.928,397.561 188.460 C 397.980 188.993,398.527 190.187,398.777 191.114 C 399.027 192.041,399.404 192.800,399.615 192.800 C 399.860 192.800,400.000 157.824,400.000 96.400 L 400.000 0.000 200.000 0.000 L 0.000 0.000 0.000 72.400 M231.770 50.590 C 234.675 51.605,237.894 53.131,238.857 53.949 C 239.155 54.203,240.169 55.001,241.108 55.722 C 243.217 57.342,247.600 62.671,247.600 63.616 C 247.600 63.885,247.939 64.667,248.353 65.353 C 248.767 66.039,249.234 67.500,249.390 68.600 C 249.547 69.700,249.883 70.853,250.137 71.161 C 250.783 71.945,251.020 324.955,250.377 327.600 C 250.137 328.590,249.729 330.390,249.470 331.600 C 249.212 332.810,248.685 334.245,248.300 334.789 C 247.915 335.333,247.600 336.091,247.600 336.473 C 247.600 336.856,247.279 337.491,246.886 337.884 C 246.494 338.278,245.661 339.363,245.035 340.295 C 243.878 342.020,239.994 345.600,239.279 345.600 C 239.063 345.600,238.782 345.870,238.655 346.200 C 238.529 346.530,238.184 346.800,237.890 346.800 C 237.596 346.800,236.745 347.250,236.000 347.800 C 235.255 348.350,234.275 348.806,233.822 348.814 C 233.370 348.821,232.280 349.175,231.400 349.600 C 228.876 350.819,171.429 350.827,168.744 349.609 C 167.785 349.174,166.608 348.814,166.129 348.809 C 165.649 348.804,164.981 348.523,164.643 348.185 C 164.305 347.847,163.392 347.305,162.614 346.980 C 161.836 346.655,161.200 346.224,161.200 346.022 C 161.200 345.819,160.852 345.544,160.427 345.409 C 159.546 345.129,154.400 340.083,154.400 339.499 C 154.400 339.288,153.950 338.581,153.400 337.927 C 152.850 337.273,152.400 336.414,152.400 336.018 C 152.400 335.622,152.153 335.093,151.851 334.842 C 151.549 334.591,151.082 333.264,150.813 331.893 C 150.545 330.522,150.161 329.201,149.961 328.958 C 149.744 328.693,149.645 276.691,149.715 199.958 C 149.843 60.093,149.724 67.617,151.851 65.169 C 152.153 64.821,152.400 64.261,152.400 63.924 C 152.400 63.586,152.940 62.631,153.600 61.800 C 154.260 60.969,154.800 60.166,154.800 60.014 C 154.800 58.438,164.064 51.671,167.127 51.011 C 167.857 50.853,168.937 50.473,169.527 50.165 C 170.418 49.700,175.553 49.605,199.770 49.602 L 228.940 49.600 231.770 50.590 " stroke="none" fill="#fbfbfb" fill-rule="evenodd"></path><path id="path4" d="M169.527 50.165 C 168.937 50.473,167.857 50.853,167.127 51.011 C 165.828 51.291,163.595 52.453,160.800 54.305 C 159.268 55.319,154.800 59.571,154.800 60.014 C 154.800 60.166,154.260 60.969,153.600 61.800 C 152.940 62.631,152.400 63.586,152.400 63.924 C 152.400 64.261,152.153 64.821,151.851 65.169 C 149.724 67.617,149.843 60.093,149.715 199.958 C 149.645 276.691,149.744 328.693,149.961 328.958 C 150.161 329.201,150.545 330.522,150.813 331.893 C 151.082 333.264,151.549 334.591,151.851 334.842 C 152.153 335.093,152.400 335.622,152.400 336.018 C 152.400 336.414,152.850 337.273,153.400 337.927 C 153.950 338.581,154.400 339.288,154.400 339.499 C 154.400 340.083,159.546 345.129,160.427 345.409 C 160.852 345.544,161.200 345.819,161.200 346.022 C 161.200 346.224,161.836 346.655,162.614 346.980 C 163.392 347.305,164.305 347.847,164.643 348.185 C 164.981 348.523,165.649 348.804,166.129 348.809 C 166.608 348.814,167.785 349.174,168.744 349.609 C 171.429 350.827,228.876 350.819,231.400 349.600 C 232.280 349.175,233.370 348.821,233.822 348.814 C 234.275 348.806,235.255 348.350,236.000 347.800 C 236.745 347.250,237.596 346.800,237.890 346.800 C 238.184 346.800,238.529 346.530,238.655 346.200 C 238.782 345.870,239.063 345.600,239.279 345.600 C 239.994 345.600,243.878 342.020,245.035 340.295 C 245.661 339.363,246.494 338.278,246.886 337.884 C 247.279 337.491,247.600 336.856,247.600 336.473 C 247.600 336.091,247.915 335.333,248.300 334.789 C 248.685 334.245,249.212 332.810,249.470 331.600 C 249.729 330.390,250.137 328.590,250.377 327.600 C 251.020 324.955,250.783 71.945,250.137 71.161 C 249.883 70.853,249.547 69.700,249.390 68.600 C 249.234 67.500,248.767 66.039,248.353 65.353 C 247.939 64.667,247.600 63.885,247.600 63.616 C 247.600 62.671,243.217 57.342,241.108 55.722 C 240.169 55.001,239.155 54.203,238.857 53.949 C 237.894 53.131,234.675 51.605,231.770 50.590 L 228.940 49.600 199.770 49.602 C 175.553 49.605,170.418 49.700,169.527 50.165 M228.086 50.971 C 229.029 51.285,230.657 51.665,231.705 51.817 C 232.752 51.968,234.026 52.420,234.536 52.821 C 235.046 53.222,235.944 53.671,236.532 53.819 C 237.119 53.966,237.600 54.235,237.600 54.416 C 237.600 54.598,237.937 54.853,238.349 54.984 C 238.761 55.114,240.121 56.252,241.373 57.511 C 244.495 60.653,245.046 61.291,245.329 62.100 C 245.464 62.485,245.753 62.800,245.971 62.800 C 246.189 62.800,246.586 63.565,246.853 64.500 C 247.120 65.435,247.575 66.482,247.865 66.827 C 249.109 68.308,249.186 76.044,249.186 200.000 C 249.186 323.956,249.109 331.692,247.865 333.173 C 247.575 333.518,247.125 334.546,246.865 335.459 C 246.605 336.371,246.124 337.220,245.796 337.346 C 245.468 337.472,245.200 337.840,245.200 338.164 C 245.200 339.306,237.525 346.400,236.291 346.400 C 235.970 346.400,235.261 346.752,234.714 347.182 C 234.168 347.611,232.623 348.140,231.282 348.356 C 229.941 348.572,228.486 348.940,228.048 349.174 C 226.939 349.768,173.061 349.768,171.952 349.174 C 171.514 348.940,170.059 348.572,168.718 348.356 C 167.377 348.140,165.832 347.611,165.286 347.182 C 164.739 346.752,164.045 346.400,163.742 346.400 C 163.440 346.400,162.884 346.040,162.507 345.600 C 162.130 345.160,161.637 344.800,161.411 344.800 C 160.672 344.800,155.084 339.080,154.671 337.900 C 154.536 337.515,154.254 337.200,154.044 337.200 C 153.835 337.200,153.540 336.615,153.389 335.900 C 153.237 335.185,152.728 333.970,152.257 333.200 L 151.400 331.800 151.400 200.000 L 151.400 68.200 152.500 66.240 C 153.105 65.163,153.600 63.967,153.600 63.583 C 153.600 63.200,153.870 62.782,154.200 62.655 C 154.530 62.529,154.800 62.182,154.800 61.885 C 154.800 61.587,155.205 60.962,155.700 60.494 C 156.195 60.026,157.410 58.814,158.400 57.800 C 159.390 56.787,160.695 55.692,161.300 55.369 C 161.905 55.045,162.400 54.624,162.400 54.433 C 162.400 54.243,162.868 53.969,163.440 53.826 C 164.012 53.682,164.957 53.229,165.540 52.818 C 166.123 52.408,167.410 51.961,168.400 51.825 C 169.390 51.689,170.920 51.321,171.800 51.006 C 174.176 50.158,225.547 50.125,228.086 50.971 M320.800 175.021 C 319.810 175.333,318.610 175.591,318.134 175.594 C 317.373 175.599,316.240 176.148,311.000 179.050 C 309.297 179.993,304.391 185.124,303.769 186.613 C 303.481 187.301,302.977 188.087,302.649 188.359 C 302.320 188.632,301.930 189.428,301.781 190.128 C 301.633 190.827,301.256 191.690,300.944 192.044 C 299.731 193.422,299.606 200.002,299.606 262.400 C 299.606 324.665,299.728 331.114,300.936 332.959 C 301.244 333.428,301.623 334.392,301.778 335.101 C 301.934 335.811,302.230 336.495,302.436 336.623 C 302.643 336.750,303.165 337.547,303.597 338.395 C 304.485 340.134,309.265 345.040,310.434 345.411 C 310.855 345.544,311.200 345.831,311.200 346.047 C 311.200 346.264,311.856 346.715,312.658 347.050 C 313.460 347.385,314.373 347.916,314.687 348.230 C 315.001 348.543,315.616 348.800,316.054 348.800 C 316.493 348.800,317.785 349.205,318.926 349.700 L 321.000 350.600 350.000 350.600 L 379.000 350.600 381.074 349.700 C 382.215 349.205,383.588 348.800,384.125 348.800 C 384.662 348.800,385.335 348.520,385.619 348.177 C 385.904 347.834,386.732 347.305,387.459 347.001 C 389.889 345.986,396.093 339.905,396.858 337.789 C 397.135 337.025,397.476 336.400,397.616 336.400 C 397.997 336.400,398.800 334.479,398.800 333.569 C 398.800 333.132,399.070 332.671,399.400 332.545 C 399.774 332.401,400.000 331.791,400.000 330.924 C 400.000 329.037,399.101 329.380,398.670 331.430 C 396.940 339.671,389.054 346.909,379.358 349.156 C 375.410 350.071,326.387 350.458,322.600 349.604 C 316.878 348.314,315.894 348.029,315.282 347.477 C 314.907 347.139,314.118 346.742,313.529 346.595 C 312.941 346.448,312.148 345.984,311.767 345.564 C 311.387 345.144,310.890 344.800,310.663 344.800 C 310.048 344.800,304.400 338.866,304.400 338.219 C 304.400 337.912,303.950 337.127,303.400 336.473 C 302.850 335.819,302.399 334.860,302.399 334.342 C 302.398 333.824,301.993 332.770,301.499 332.000 L 300.600 330.600 300.600 262.582 C 300.600 199.049,300.645 194.496,301.285 193.520 C 301.662 192.945,302.178 191.648,302.432 190.637 C 302.687 189.627,303.063 188.800,303.268 188.800 C 303.473 188.800,303.905 188.168,304.227 187.396 C 305.185 185.105,309.717 180.795,313.760 178.332 C 318.064 175.710,319.507 175.600,349.687 175.600 C 376.179 175.600,382.329 175.853,383.596 176.993 C 383.928 177.293,384.700 177.663,385.312 177.815 C 389.499 178.860,398.392 188.958,398.398 192.674 C 398.401 193.889,399.097 195.600,399.590 195.600 C 399.816 195.600,400.000 194.970,400.000 194.200 C 400.000 193.430,399.827 192.800,399.615 192.800 C 399.404 192.800,399.027 192.041,398.777 191.114 C 398.527 190.187,397.980 188.993,397.561 188.460 C 397.143 187.928,396.800 187.255,396.800 186.966 C 396.800 186.677,396.571 186.296,396.290 186.120 C 396.010 185.944,395.447 185.276,395.038 184.635 C 393.534 182.274,388.477 178.047,386.394 177.409 C 385.847 177.242,385.109 176.851,384.753 176.539 C 384.398 176.228,383.005 175.795,381.659 175.579 C 380.312 175.362,378.747 175.008,378.179 174.792 C 376.400 174.116,322.997 174.328,320.800 175.021 " stroke="none" fill="#9eb2d9" fill-rule="evenodd"></path></g></svg>